<svg width="92" height="92" xmlns="http://www.w3.org/2000/svg" xmlns:xlink="http://www.w3.org/1999/xlink" xml:space="preserve" overflow="hidden"><g transform="translate(-177 -311)"><path d="M230.667 341.667 245.042 341.667 245.042 343.583 230.667 343.583Z" stroke="#FFFFFF" stroke-width="0.95832" fill="#FFFFFF"/><path d="M230.667 347.417 245.042 347.417 245.042 349.333 230.667 349.333Z" stroke="#FFFFFF" stroke-width="0.95832" fill="#FFFFFF"/><path d="M230.667 353.167 240.25 353.167 240.25 355.083 230.667 355.083Z" stroke="#FFFFFF" stroke-width="0.95832" fill="#FFFFFF"/><path d="M260.375 334 254.625 334 254.625 329.783C254.625 329.374 254.365 329.01 253.978 328.877 243.93 325.523 233.07 325.486 223 328.771 212.93 325.485 202.07 325.522 192.022 328.876 191.634 329.009 191.374 329.374 191.375 329.783L191.375 334 185.625 334C185.096 334 184.667 334.429 184.667 334.958L184.667 380.958C184.667 381.488 185.096 381.917 185.625 381.917L216.387 381.917C216.79 383.602 218.296 384.792 220.029 384.792L225.971 384.792C227.704 384.792 229.21 383.602 229.613 381.917L260.375 381.917C260.904 381.917 261.333 381.488 261.333 380.958L261.333 334.958C261.333 334.429 260.904 334 260.375 334ZM252.708 330.473 252.708 374.461C243.335 371.62 233.331 371.62 223.958 374.461L223.958 330.473C233.312 327.509 243.354 327.509 252.708 330.473ZM193.292 330.473C202.646 327.509 212.688 327.509 222.042 330.473L222.042 374.461C212.669 371.62 202.665 371.62 193.292 374.461ZM259.417 380 228.75 380C228.221 380 227.792 380.429 227.792 380.958L227.792 381.054C227.792 382.06 226.976 382.875 225.971 382.875L220.029 382.875C219.024 382.875 218.208 382.06 218.208 381.054L218.208 380.958C218.208 380.429 217.779 380 217.25 380L186.583 380 186.583 335.917 191.375 335.917 191.375 375.783C191.375 376.313 191.804 376.742 192.333 376.742 192.439 376.742 192.544 376.724 192.645 376.69 202.395 373.438 212.938 373.438 222.689 376.69 222.704 376.693 222.72 376.696 222.736 376.698 222.807 376.718 222.88 376.731 222.954 376.734 222.969 376.734 222.985 376.742 223 376.742 223.015 376.742 223.024 376.737 223.035 376.736 223.108 376.734 223.181 376.723 223.251 376.703 223.266 376.703 223.283 376.698 223.299 376.693L223.311 376.693C233.062 373.441 243.605 373.441 253.355 376.693 253.456 376.726 253.561 376.742 253.667 376.742 254.196 376.742 254.625 376.313 254.625 375.783L254.625 335.917 259.417 335.917Z" stroke="#FFFFFF" stroke-width="0.95832" fill="#FFFFFF"/></g></svg>