<svg width="92" height="92" xmlns="http://www.w3.org/2000/svg" xmlns:xlink="http://www.w3.org/1999/xlink" xml:space="preserve" overflow="hidden"><g transform="translate(-983 -319)"><path d="M1038.63 324.515C1038.14 324.322 1037.58 324.564 1037.39 325.057 1037.19 325.55 1037.44 326.106 1037.93 326.3 1055.92 333.349 1064.78 353.645 1057.73 371.631 1050.68 389.617 1030.39 398.483 1012.4 391.434 1011.91 391.24 1011.35 391.483 1011.16 391.976 1010.96 392.468 1011.21 393.025 1011.7 393.218 1015.69 394.783 1019.92 395.638 1024.21 395.743L1024.21 402.471 1012.23 402.471C1010.11 402.471 1008.4 404.187 1008.4 406.304L1010.31 406.304C1010.31 405.246 1011.17 404.388 1012.23 404.388L1038.1 404.388C1039.16 404.388 1040.02 405.246 1040.02 406.304L1041.94 406.304C1041.94 404.187 1040.22 402.471 1038.1 402.471L1026.12 402.471 1026.12 395.726C1046.49 395.207 1062.57 378.28 1062.05 357.918 1061.68 343.086 1052.45 329.924 1038.63 324.515Z" stroke="#FFFFFF" stroke-width="0.95832" fill="#FFFFFF"/><path d="M1001.69 407.263 1048.65 407.263 1048.65 409.179 1001.69 409.179Z" stroke="#FFFFFF" stroke-width="0.95832" fill="#FFFFFF"/><path d="M1013.31 387.668C1029.22 394.215 1047.42 386.626 1053.97 370.719 1060.51 354.812 1052.93 336.61 1037.02 330.064 1021.11 323.518 1002.91 331.106 996.364 347.013 989.764 362.791 997.204 380.932 1012.98 387.532 1013.09 387.578 1013.2 387.624 1013.31 387.668ZM1026.42 358.343 1036.82 333.056C1041.85 341.69 1042.53 353.039 1038.58 363.348ZM1037.85 365.121C1033.4 375.222 1024.93 382.807 1015.28 385.403L1025.69 360.117ZM1024.65 357.621 1012.49 352.611C1016.94 342.51 1025.4 334.925 1035.05 332.328ZM1023.92 359.388 1013.51 384.676C1008.48 376.041 1007.81 364.692 1011.76 354.384ZM1016.94 386.915C1026.67 383.887 1035.12 376.092 1039.62 365.852L1051.81 370.868C1045.81 384.154 1030.94 390.997 1016.94 386.915ZM1052.54 369.096 1040.35 364.079C1044.36 353.633 1043.85 342.155 1039.07 333.156 1051.88 340.109 1057.63 355.433 1052.54 369.096ZM1025.2 329.638C1027.97 329.638 1030.73 330.036 1033.39 330.819 1023.66 333.848 1015.21 341.643 1010.71 351.881L998.536 346.87C1003.27 336.384 1013.7 329.642 1025.2 329.638ZM997.796 348.637 1009.98 353.654C1005.97 364.095 1006.49 375.578 1011.27 384.577 998.45 377.624 992.707 362.3 997.795 348.637Z" stroke="#FFFFFF" stroke-width="0.95832" fill="#FFFFFF"/></g></svg>