<svg width="92" height="92" xmlns="http://www.w3.org/2000/svg" xmlns:xlink="http://www.w3.org/1999/xlink" xml:space="preserve" overflow="hidden"><g transform="translate(-578 -319)"><path d="M631.914 378.279 631.914 359.342C636.385 353.024 638.547 345.361 638.039 337.638 637.925 335.601 636.182 334.043 634.146 334.156 632.11 334.27 630.551 336.013 630.665 338.049 630.665 338.062 630.666 338.075 630.667 338.087 631.077 343.971 629.483 349.821 626.147 354.685L625.43 354.685C624.471 354.715 623.52 354.866 622.599 355.135 622.352 355.198 622.107 355.272 621.867 355.359 613.244 358.495 607.248 364.209 603.015 373.333 602.168 375.146 602.819 377.305 604.526 378.348 605.697 378.978 607.117 378.929 608.242 378.22 608.879 377.803 609.38 377.209 609.682 376.51 611.381 372.581 613.959 369.094 617.219 366.319L617.219 381.255 614.913 385.924 603.947 385.206C601.912 385.079 600.159 386.626 600.031 388.661 599.904 390.691 601.442 392.441 603.472 392.576L616.889 393.456C616.896 393.456 616.993 393.459 617 393.46 617.014 393.46 617.12 393.463 617.134 393.463 618.54 393.468 619.825 392.669 620.443 391.407L625.195 381.792C625.198 381.787 625.203 381.785 625.208 381.788 625.209 381.788 625.21 381.789 625.211 381.79L630.699 388.277 629.701 402.429C629.562 404.456 631.086 406.215 633.112 406.367 633.204 406.374 633.296 406.377 633.388 406.377 635.322 406.369 636.924 404.874 637.067 402.944L638.171 387.297C638.243 386.336 637.933 385.385 637.308 384.651ZM635.15 402.879C635.086 403.796 634.305 404.496 633.387 404.461L633.26 404.456C632.283 404.385 631.547 403.539 631.613 402.562L632.638 388.023C632.656 387.774 632.575 387.527 632.414 387.336L625.721 379.425C625.379 379.021 624.775 378.971 624.371 379.313 624.27 379.398 624.189 379.502 624.13 379.62L618.703 390.601C618.409 391.196 617.796 391.565 617.134 391.547L617.015 391.543 603.605 390.664C602.626 390.595 601.889 389.747 601.957 388.768 602.025 387.799 602.859 387.065 603.829 387.12L615.426 387.879C615.813 387.906 616.178 387.695 616.348 387.347L619.037 381.904C619.102 381.772 619.136 381.627 619.136 381.48L619.136 364.401C619.136 363.871 618.707 363.442 618.178 363.442 617.983 363.442 617.794 363.501 617.634 363.611 613.554 366.421 610.365 370.419 607.884 375.834 607.475 376.726 606.421 377.117 605.529 376.709 605.462 376.678 605.396 376.643 605.334 376.604 604.567 376.088 604.297 375.086 604.7 374.255 608.708 365.557 614.373 360.123 622.522 357.161 622.721 357.088 622.863 357.049 623.116 356.982 623.878 356.757 624.666 356.629 625.46 356.601L626.645 356.601C626.952 356.602 627.24 356.456 627.42 356.207 631.206 350.909 633.03 344.459 632.58 337.963 632.518 336.984 633.261 336.14 634.24 336.078 635.219 336.016 636.063 336.759 636.125 337.738 636.126 337.745 636.126 337.752 636.127 337.759 636.614 345.143 634.512 352.467 630.182 358.469 630.063 358.633 629.998 358.831 629.998 359.034L629.998 378.63C629.998 378.857 630.078 379.076 630.225 379.249L635.845 385.889C636.145 386.242 636.293 386.699 636.259 387.16Z" stroke="#FFFFFF" stroke-width="0.95832" fill="#FFFFFF"/><path d="M644.96 329.772 644.193 329.331C644.1 329.275 644.052 329.166 644.074 329.059L644.266 328.173C644.287 328.059 644.238 327.944 644.141 327.88 644.041 327.83 643.921 327.838 643.83 327.903L643.143 328.5C643.062 328.577 642.94 328.59 642.846 328.532L642.079 328.09C641.984 328.031 641.862 328.044 641.782 328.122 641.702 328.194 641.672 328.306 641.705 328.409L641.832 328.792 641.986 329.287C641.997 329.336 641.997 329.388 641.986 329.437 641.976 329.486 641.95 329.529 641.913 329.561L641.216 330.208C641.131 330.28 641.105 330.402 641.153 330.503 641.198 330.596 641.292 330.656 641.395 330.656L641.418 330.655 642.359 330.573 642.381 330.572C642.485 330.572 642.579 330.632 642.622 330.725L643.013 331.577C643.057 331.671 643.151 331.73 643.254 331.73L643.277 331.729C643.389 331.72 643.481 331.639 643.506 331.53L643.731 330.611C643.754 330.511 643.836 330.435 643.938 330.419L644.856 330.25C644.966 330.23 645.054 330.15 645.083 330.043 645.099 329.936 645.051 329.83 644.96 329.772Z" stroke="#FFFFFF" stroke-width="0.95832" fill="#FFFFFF"/><path d="M625.15 331.956 625.596 332.227C625.638 332.255 625.673 332.293 625.699 332.336 625.724 332.379 625.733 332.428 625.726 332.477L625.63 333.418C625.615 333.529 625.676 333.637 625.78 333.682 625.882 333.727 626.001 333.704 626.08 333.624L626.733 332.953C626.812 332.874 626.931 332.851 627.033 332.897L627.896 333.28C627.997 333.325 628.117 333.302 628.195 333.223 628.272 333.143 628.289 333.021 628.235 332.924L627.793 332.084C627.744 331.994 627.755 331.882 627.821 331.803L628.396 331.078C628.487 330.967 628.472 330.802 628.361 330.711 628.314 330.672 628.255 330.652 628.195 330.652 628.18 330.652 628.165 330.653 628.151 330.655L627.282 330.821C627.175 330.839 627.067 330.788 627.013 330.693L626.564 329.905C626.513 329.817 626.419 329.763 626.317 329.763 626.187 329.762 626.077 329.857 626.058 329.985L625.938 330.883C625.929 330.994 625.845 331.083 625.735 331.1L624.868 331.266C624.759 331.282 624.675 331.372 624.665 331.482 624.653 331.589 624.705 331.694 624.798 331.749Z" stroke="#FFFFFF" stroke-width="0.95832" fill="#FFFFFF"/><path d="M620.915 353.469C624.091 353.469 626.665 350.895 626.665 347.719 626.665 344.544 624.091 341.969 620.915 341.969 617.74 341.969 615.165 344.544 615.165 347.719 615.165 350.895 617.74 353.469 620.915 353.469ZM619.874 344.024C621.921 343.455 624.042 344.653 624.611 346.7 624.798 347.374 624.798 348.086 624.61 348.761 624.258 350.053 623.249 351.062 621.957 351.415 619.91 351.984 617.789 350.786 617.22 348.739 617.032 348.065 617.032 347.352 617.22 346.678 617.572 345.385 618.582 344.376 619.874 344.024Z" stroke="#FFFFFF" stroke-width="0.95832" fill="#FFFFFF"/><path d="M638.635 324.69 636.604 324.69C636.354 324.684 636.133 324.524 636.05 324.288L635.386 322.314C635.294 322.063 635.062 321.89 634.795 321.875 634.539 321.89 634.312 322.044 634.204 322.276L633.539 324.251C633.472 324.489 633.254 324.653 633.007 324.653L632.986 324.653 630.956 324.653 630.935 324.653C630.687 324.653 630.469 324.817 630.402 325.056 630.329 325.292 630.401 325.549 630.586 325.713L631.287 326.335 632.174 327.139C632.255 327.221 632.318 327.319 632.359 327.427 632.395 327.533 632.395 327.649 632.359 327.755L631.731 329.84C631.646 330.085 631.738 330.357 631.954 330.5 632.165 330.647 632.445 330.647 632.656 330.5L634.428 329.254C634.639 329.109 634.918 329.109 635.129 329.254L636.899 330.5C637.11 330.647 637.39 330.647 637.601 330.5 637.81 330.353 637.9 330.087 637.822 329.843L637.194 327.758C637.122 327.533 637.196 327.286 637.379 327.137L639.009 325.748C639.263 325.539 639.3 325.163 639.091 324.908 638.979 324.771 638.812 324.691 638.635 324.69ZM635.263 327.275C634.939 327.212 634.606 327.213 634.282 327.277 634.261 327.117 634.224 326.96 634.172 326.807L634.164 326.782 634.154 326.756C634.104 326.623 634.045 326.495 633.975 326.371 634.28 326.24 634.555 326.05 634.785 325.812 635.007 326.045 635.271 326.234 635.563 326.369 635.405 326.648 635.304 326.956 635.263 327.275Z" stroke="#FFFFFF" stroke-width="0.95832" fill="#FFFFFF"/></g></svg>