<?xml version="1.0" standalone="no"?>
<!DOCTYPE svg PUBLIC "-//W3C//DTD SVG 20010904//EN"
 "http://www.w3.org/TR/2001/REC-SVG-20010904/DTD/svg10.dtd">
<svg version="1.0" xmlns="http://www.w3.org/2000/svg"
 width="1116.000000pt" height="234.000000pt" viewBox="0 0 1116.000000 234.000000"
 preserveAspectRatio="xMidYMid meet">

<g transform="translate(0.000000,234.000000) scale(0.100000,-0.100000)"
fill="#FFFFFF" stroke="none">
<path d="M2120 2310 c-19 -10 -62 -23 -95 -30 -73 -14 -134 -40 -158 -67 -18
-21 -18 -20 -84 24 -74 49 -106 53 -111 13 -2 -21 4 -29 31 -42 50 -24 105
-75 128 -119 31 -61 27 -70 -23 -51 -27 10 -78 16 -138 16 -88 1 -101 -2 -161
-31 -140 -69 -219 -210 -219 -388 0 -45 15 -137 37 -231 5 -22 4 -22 -55 -8
-163 38 -502 58 -533 32 -9 -7 -30 -32 -48 -55 -31 -41 -33 -42 -99 -45 l-66
-3 -238 -300 c-154 -195 -237 -307 -235 -320 1 -14 11 -21 30 -23 15 -2 27 -7
27 -11 0 -3 -24 -67 -54 -141 -60 -150 -61 -177 -5 -166 67 13 311 46 419 56
396 36 942 16 1403 -54 96 -14 104 -14 295 14 382 56 500 65 872 65 371 0 490
-10 750 -61 176 -35 172 -45 71 209 -17 43 -31 80 -31 82 0 3 14 5 30 5 41 0
48 24 19 63 -64 88 -434 554 -451 570 -14 12 -37 17 -78 17 -57 0 -59 1 -91
43 -50 65 -54 67 -155 67 -157 0 -370 -27 -514 -65 -30 -8 -56 -13 -58 -11 -2
2 4 32 13 67 38 146 30 308 -21 416 -32 68 -117 145 -192 174 -82 32 -249 32
-341 0 -35 -12 -64 -21 -66 -19 -1 2 -5 20 -9 41 l-7 37 63 0 c109 1 177 48
213 149 19 56 19 87 -1 95 -20 8 -22 7 -64 -14z m-10 -88 c0 -17 -58 -63 -91
-72 -19 -6 -54 -7 -77 -4 -44 7 -44 7 -24 26 26 26 192 69 192 50z m-287 -260
c46 -21 47 -22 47 -65 0 -52 21 -78 48 -60 12 7 17 24 16 52 -1 41 0 41 55 63
46 18 77 22 171 22 100 1 122 -2 167 -23 61 -27 116 -84 147 -150 18 -40 21
-64 21 -186 0 -132 -2 -145 -33 -235 -74 -214 -211 -373 -320 -373 -21 0 -63
12 -93 27 -70 33 -88 33 -158 0 -60 -29 -124 -40 -164 -30 -44 11 -144 95
-201 169 -65 86 -129 217 -152 313 -24 104 -16 252 17 324 36 78 71 114 142
150 59 30 67 31 152 27 62 -3 105 -10 138 -25z m-736 -602 c43 -6 123 -20 178
-31 l100 -21 43 -77 c54 -97 149 -203 227 -254 59 -38 61 -39 145 -35 64 2 95
9 128 26 54 28 68 28 134 -3 88 -41 162 -31 250 35 61 46 131 133 173 217 15
32 33 61 39 65 20 13 220 58 327 73 57 8 158 15 225 15 l120 0 166 -212 165
-213 -211 -7 c-578 -18 -963 -129 -1243 -356 l-43 -34 0 160 c0 133 -3 162
-16 173 -11 9 -20 10 -32 2 -15 -9 -17 -34 -20 -172 l-2 -161 -71 53 c-283
216 -653 318 -1220 336 l-206 6 165 213 165 212 118 0 c65 0 153 -5 196 -10z
m-494 -112 c-6 -7 -67 -86 -136 -176 -70 -90 -127 -165 -127 -167 0 -2 3 -10
6 -19 5 -14 34 -16 223 -16 251 0 393 -11 581 -45 311 -56 524 -144 711 -293
44 -35 78 -66 76 -69 -3 -2 -31 12 -64 31 -194 114 -464 196 -798 243 -108 15
-196 18 -517 18 l-386 0 16 22 c10 12 98 125 197 252 142 182 185 230 204 230
17 1 21 -2 14 -11z m2963 -200 c92 -117 182 -231 200 -253 l32 -40 -386 0
c-408 0 -492 -6 -742 -56 -207 -41 -451 -129 -579 -208 -74 -45 -62 -23 24 46
183 145 398 233 705 288 188 34 330 45 581 45 189 0 218 2 223 16 8 20 13 13
-127 194 -66 85 -125 161 -130 168 -7 9 -4 12 11 12 15 0 67 -58 188 -212z
m-2762 -358 c389 -21 690 -86 942 -206 42 -20 74 -37 72 -39 -2 -1 -75 5 -163
16 -297 33 -491 42 -833 36 -306 -5 -452 -16 -645 -48 -38 -6 -70 -9 -72 -8
-3 4 84 228 92 238 3 4 191 14 368 19 28 1 135 -3 239 -8z m2906 -6 l55 -5 47
-117 c25 -64 45 -118 43 -120 -1 -1 -24 2 -51 8 -109 25 -331 50 -530 62 -240
13 -537 2 -829 -31 -93 -11 -197 -23 -230 -26 l-60 -6 39 22 c201 110 579 198
941 219 147 8 466 5 575 -6z"/>
<path d="M2000 1851 c-28 -53 -135 -66 -172 -22 -19 25 -56 27 -65 5 -8 -22 6
-44 47 -71 87 -60 264 0 248 83 -5 27 -44 30 -58 5z"/>
<path d="M5376 1638 c-2 -7 -11 -220 -20 -473 -9 -253 -23 -510 -31 -571 -34
-257 -94 -346 -241 -361 l-54 -6 0 -103 0 -104 48 0 c71 0 170 19 223 42 27
11 69 43 98 72 127 135 160 292 186 878 8 189 15 362 15 386 l0 42 285 0 285
0 0 -710 0 -710 115 0 115 0 0 815 0 815 -510 0 c-400 0 -511 -3 -514 -12z"/>
<path d="M6770 835 l0 -815 120 0 120 0 0 355 0 355 415 0 415 0 0 -355 0
-355 120 0 120 0 0 815 0 815 -120 0 -120 0 -2 -352 -3 -353 -412 -3 -413 -2
0 355 0 355 -120 0 -120 0 0 -815z"/>
<path d="M8323 1643 c2 -5 131 -279 286 -611 l283 -603 -16 -40 c-53 -132
-121 -178 -263 -179 l-53 0 0 -105 0 -105 68 0 c206 0 320 63 407 221 16 30
158 362 316 739 l288 685 -121 3 c-67 1 -125 -1 -130 -6 -4 -4 -91 -214 -193
-467 -102 -252 -187 -460 -189 -462 -2 -2 -100 208 -217 467 l-214 470 -128 0
c-71 0 -126 -3 -124 -7z"/>
<path d="M9900 835 l0 -815 120 0 120 0 0 710 0 710 390 0 390 0 0 -710 0
-710 120 0 120 0 0 815 0 815 -630 0 -630 0 0 -815z"/>
</g>
</svg>
